<svg width="213" height="213" viewBox="0 0 213 213" fill="none" xmlns="http://www.w3.org/2000/svg">
<circle cx="106.5" cy="106.5" r="104.5" fill="white" stroke="#FF9900" stroke-width="4"/>
<g clip-path="url(#clip0_5_390)">
<path d="M95.6995 99.0493C85.1646 104.826 75.9909 109.752 66.1347 109.752C62.0532 109.759 58.1203 108.22 55.1264 105.446C52.1324 102.672 50.2991 98.8682 49.9949 94.798C49.991 91.9357 50.6124 89.107 51.8156 86.5099C53.0189 83.9127 54.7749 81.6098 56.9609 79.762C60.3582 77.4686 61.2122 75.2646 59.4744 72.8183C57.4905 70.0289 53.1348 71.7779 51.2702 72.7139C47.2786 74.7507 43.9697 77.9103 41.7507 81.8036C39.5318 85.6969 38.4996 90.1541 38.7812 94.6265C38.7812 110.259 49.9613 122.64 64.6952 122.64C74.5477 122.64 80.3279 121.074 92.526 115.293C97.2695 113.045 99.4623 114.413 100.286 116.136C101.607 118.881 97.6312 120.313 96.1246 121.044C93.1488 122.491 84.4859 122.83 83.975 126.313C83.7549 131.013 83.8259 135.722 84.1876 140.413C84.1876 140.413 72.2915 142.58 73.1008 147.849C73.91 153.118 78.4969 153.54 82.5729 153.499C86.6488 153.458 97.3963 148.826 97.3553 143.896C97.3142 138.966 99.8613 137.527 101.644 137.527C103.426 137.527 111.03 140.585 111.5 143.43C111.881 144.514 111.858 145.699 111.436 146.767C111.014 147.835 110.221 148.716 109.203 149.248C106.783 150.948 101.942 153.834 102.196 156.557C102.391 157.933 102.998 159.217 103.938 160.24C104.879 161.264 106.107 161.978 107.461 162.288C107.461 162.288 110.482 170.53 114.386 170.53C118.291 170.53 119.357 166.323 119.059 163.862C118.979 162.674 118.691 161.509 118.209 160.42C120.637 159.365 122.712 157.635 124.187 155.437C125.663 153.239 126.478 150.664 126.536 148.017C127.098 143.412 126.558 138.739 124.962 134.383C127.432 129.66 128.757 124.423 128.829 119.094C128.531 111.404 127.513 109.707 130.825 105.754C134.136 101.801 145.779 88.2981 159.92 88.2981C174.061 88.2981 174.109 99.0008 174.109 101.891C173.432 106.425 172.011 110.816 169.902 114.887C169.579 115.314 169.344 115.802 169.212 116.321C169.079 116.84 169.051 117.38 169.13 117.91C169.209 118.44 169.393 118.949 169.671 119.407C169.949 119.865 170.315 120.263 170.749 120.578C172.323 121.682 174.15 121.301 175.977 119.56C181.011 114.559 183.957 107.833 184.219 100.742C184.219 90.9346 175.597 75.1304 159.327 75.1304C143.056 75.1304 124.41 90.5057 124.41 90.5057C125.474 87.7591 125.981 84.8283 125.902 81.8839C124.649 74.6419 116.851 68.4589 106.104 68.4589C95.3564 68.4589 89.3711 80.6906 89.3711 87.4478C89.5816 89.7098 90.2514 91.905 91.3396 93.8991C92.4277 95.8933 93.9113 97.6445 95.6995 99.0455V99.0493Z" stroke="#FF9900" stroke-width="3" stroke-linecap="round" stroke-linejoin="round"/>
<g clip-path="url(#clip1_5_390)">
<path d="M56.5102 55.1122C57.5884 56.3042 58.3564 57.7434 58.7464 59.3026C59.1364 60.8619 59.1364 62.4932 58.7463 64.0524L58.647 64.4188L63.4017 70.5342C63.802 71.0488 64.0622 71.6582 64.1571 72.3033C64.2519 72.9483 64.1781 73.6068 63.9429 74.2149C64.1111 74.2607 64.2875 74.2678 64.4589 74.2359L64.6267 74.1939C64.977 74.0821 65.3572 74.1128 65.685 74.2794C66.0128 74.4459 66.2619 74.7348 66.3783 75.0835C66.4947 75.4323 66.469 75.8129 66.3069 76.1429C66.1447 76.4729 65.8591 76.7257 65.5119 76.8467C64.6028 77.1598 63.6096 77.1229 62.7262 76.7432C62.4512 76.627 62.1903 76.4796 61.9487 76.3041C61.369 76.5603 60.7341 76.6663 60.1026 76.6126C59.4711 76.5588 58.8632 76.3469 58.3351 75.9965L58.1058 75.8301L51.9918 71.0754C50.3876 71.5435 48.6903 71.5932 47.0614 71.2196C45.4326 70.8461 43.9265 70.0618 42.6866 68.9414C45.6743 67.4822 48.3984 65.5361 50.7472 63.1826C53.1029 60.8316 55.0506 58.1032 56.5102 55.1122ZM54.2839 53.2803C52.9338 56.2296 51.0663 58.9132 48.7698 61.2038C46.4805 63.4983 43.7989 65.3643 40.8519 66.7137C39.7303 64.8412 39.2664 62.6478 39.5338 60.4816C39.8011 58.3154 40.7845 56.3007 42.3277 54.7571C43.8708 53.2136 45.8854 52.2299 48.0516 51.9621C50.2177 51.6942 52.4112 52.1591 54.2839 53.2803Z" fill="#FF9900"/>
</g>
<g clip-path="url(#clip2_5_390)">
<path d="M190.464 123.28C188.909 123.687 187.278 123.705 185.715 123.331C184.151 122.958 182.704 122.205 181.501 121.14L181.221 120.883L173.602 122.28C172.961 122.397 172.3 122.347 171.684 122.134C171.068 121.92 170.518 121.551 170.087 121.062C169.969 121.19 169.881 121.343 169.83 121.51L169.79 121.678C169.728 122.04 169.525 122.364 169.226 122.578C168.927 122.792 168.556 122.879 168.193 122.822C167.829 122.764 167.504 122.566 167.286 122.27C167.068 121.973 166.975 121.603 167.028 121.24C167.17 120.289 167.661 119.424 168.405 118.816C168.635 118.625 168.886 118.462 169.153 118.329C169.194 117.696 169.392 117.084 169.731 116.548C170.07 116.013 170.539 115.571 171.093 115.264L171.347 115.138L178.386 111.907C178.711 110.268 179.45 108.739 180.533 107.466C181.616 106.193 183.006 105.219 184.572 104.636C184.488 107.96 184.958 111.274 185.963 114.444C186.962 117.619 188.484 120.606 190.464 123.28ZM193.117 122.15C191.123 119.592 189.603 116.697 188.631 113.603C187.651 110.513 187.233 107.273 187.395 104.036C189.574 103.905 191.734 104.505 193.533 105.742C195.331 106.978 196.665 108.78 197.322 110.861C197.98 112.943 197.923 115.184 197.161 117.229C196.4 119.275 194.975 121.006 193.117 122.15Z" fill="#FF9900"/>
</g>
</g>
<path d="M130.65 44.2474L131.076 40.7733L133.528 38.847C134.418 38.16 134.72 36.9276 134.283 35.8868C134.118 35.4832 133.848 35.1308 133.502 34.8654C133.155 34.6 132.745 34.4312 132.312 34.3761C132.104 34.3506 131.862 34.3512 131.666 34.3877C130.559 34.5444 129.713 35.4483 129.577 36.56L129.183 39.7759L125.681 42.541C124.771 43.2674 124.094 44.2451 123.735 45.3527C123.375 46.4603 123.349 47.649 123.659 48.7715C124.192 50.7509 125.701 52.2553 127.585 52.8285L127.511 53.434C127.479 53.6921 127.222 53.9024 126.954 53.8696L125.465 53.6873L125.222 55.6725L126.711 55.8547C128.051 56.0188 129.327 55.0567 129.496 53.677L129.557 53.1807C131.572 53.4274 133.919 51.7804 134.263 48.9713C134.543 46.6884 132.874 44.5195 130.65 44.2474ZM131.562 36.803C131.59 36.5747 131.721 36.4094 131.936 36.3753C132.162 36.3425 132.379 36.4598 132.464 36.6716C132.509 36.7739 132.518 36.888 132.49 36.9959C132.462 37.1039 132.399 37.1994 132.311 37.2674L131.412 38.0238L131.562 36.803ZM128.605 44.5007C127.564 45.0181 126.706 46.0212 126.324 47.0021L128.206 47.7564L127.835 50.7838C127.285 50.5615 126.793 50.2153 126.399 49.7721C126.004 49.3289 125.716 48.8006 125.559 48.2283C125.151 46.7074 125.67 45.0986 126.898 44.1205L128.848 42.5155L128.605 44.5007ZM129.8 51.1955L130.415 46.173C131.576 46.3152 132.445 47.5297 132.298 48.7308C132.085 50.4678 130.703 51.3061 129.8 51.1955Z" fill="#FF9900"/>
<g clip-path="url(#clip3_5_390)">
<path d="M139.241 177.503C141.365 178.097 143.576 176.853 144.171 174.729L146.905 164.96L154.69 170.536L152.688 177.691C152.202 177.181 151.589 176.81 150.912 176.616C148.787 176.021 146.576 177.265 145.982 179.39C145.387 181.514 146.631 183.725 148.755 184.32C150.88 184.914 153.091 183.67 153.686 181.546L156.805 170.401C156.86 170.204 156.854 169.994 156.786 169.8C156.717 169.607 156.591 169.439 156.424 169.32L146.91 162.503C146.779 162.409 146.628 162.348 146.469 162.325C146.31 162.302 146.147 162.318 145.996 162.371C145.844 162.425 145.707 162.514 145.597 162.631C145.487 162.748 145.408 162.89 145.364 163.045L143.173 170.874C142.687 170.364 142.074 169.993 141.397 169.799C139.273 169.204 137.062 170.448 136.467 172.573C135.872 174.697 137.116 176.908 139.241 177.503Z" fill="#FF9900"/>
</g>
<g clip-path="url(#clip4_5_390)">
<path d="M31.5109 139.455L34.868 129.469L42.4509 132.018L41.4949 134.862L35.8077 132.95L32.3024 143.377C32.0217 144.211 31.4734 144.93 30.7426 145.421C30.0118 145.912 29.1394 146.148 28.2607 146.093C27.3819 146.038 26.5459 145.695 25.8823 145.116C25.2186 144.537 24.7645 143.756 24.5903 142.893C24.4161 142.03 24.5315 141.133 24.9187 140.342C25.3059 139.551 25.9432 138.91 26.7318 138.519C27.5203 138.127 28.4161 138.007 29.2802 138.176C30.1443 138.345 30.9284 138.795 31.5109 139.455Z" fill="#FF9900"/>
</g>
<defs>
<clipPath id="clip0_5_390">
<rect width="179" height="179" fill="white" transform="translate(22 30)"/>
</clipPath>
<clipPath id="clip1_5_390">
<rect width="33.5625" height="33.5625" fill="white" transform="translate(36.9167 48.6458)"/>
</clipPath>
<clipPath id="clip2_5_390">
<rect width="33.5625" height="33.5625" fill="white" transform="translate(205.241 108.88) rotate(117.475)"/>
</clipPath>
<clipPath id="clip3_5_390">
<rect width="24" height="24" fill="white" transform="translate(138.469 158) rotate(15.637)"/>
</clipPath>
<clipPath id="clip4_5_390">
<rect width="24" height="24" fill="white" transform="translate(24.4495 122.802) rotate(18.5821)"/>
</clipPath>
</defs>
</svg>
